<svg width="1021" height="907" xmlns="http://www.w3.org/2000/svg" xmlns:xlink="http://www.w3.org/1999/xlink" overflow="hidden"><defs><clipPath id="clip0"><rect x="0" y="0" width="1021" height="907"/></clipPath></defs><g clip-path="url(#clip0)"><rect x="0" y="0" width="1021" height="907.389" fill="#FFFFFF"/><rect x="110.5" y="4.49702" width="291" height="54.9629" stroke="#000000" stroke-width="1.00049" stroke-linejoin="round" stroke-miterlimit="10" fill="none"/><text font-family="Arial,Arial_MSFontService,sans-serif" font-weight="400" font-size="18.6632" transform="matrix(1 0 0 0.999327 198.337 27)">Preprocessed</text><text font-family="Arial,Arial_MSFontService,sans-serif" font-weight="400" font-size="18.6632" transform="matrix(1 0 0 0.999327 183.33 50)">functional images</text><rect x="428.5" y="4.49702" width="260" height="54.9629" stroke="#000000" stroke-width="1.00049" stroke-linejoin="round" stroke-miterlimit="10" fill="none"/><text font-family="Arial,Arial_MSFontService,sans-serif" font-weight="400" font-size="18.6632" transform="matrix(1 0 0 0.999327 508.454 27)">1</text><text font-family="Arial,Arial_MSFontService,sans-serif" font-weight="400" font-size="12.4422" transform="matrix(1 0 0 0.999327 518.792 21)">st</text><text font-family="Arial,Arial_MSFontService,sans-serif" font-weight="400" font-size="18.6632" transform="matrix(1 0 0 0.999327 528.463 27)">-</text><text font-family="Arial,Arial_MSFontService,sans-serif" font-weight="400" font-size="18.6632" transform="matrix(1 0 0 0.999327 534.633 27)">lvl GLMs</text><text font-family="Arial,Arial_MSFontService,sans-serif" font-weight="400" font-size="18.6632" transform="matrix(1 0 0 0.999327 494.113 50)">(</text><text font-family="Arial,Arial_MSFontService,sans-serif" font-weight="400" font-size="18.6632" transform="matrix(1 0 0 0.999327 500.283 50)">SPM.mat</text><text font-family="Arial,Arial_MSFontService,sans-serif" font-weight="400" font-size="18.6632" transform="matrix(1 0 0 0.999327 582.156 50)">files)</text><path d="M401 29.9788 417.561 29.9789 417.56 33.9782 401 33.9781ZM415.56 25.9796 427.565 31.9786 415.56 37.9774Z"/><rect x="714.5" y="4.49702" width="202" height="54.9629" stroke="#000000" stroke-width="1.00049" stroke-linejoin="round" stroke-miterlimit="10" fill="none"/><text font-family="Arial,Arial_MSFontService,sans-serif" font-weight="400" font-size="18.6632" transform="matrix(1 0 0 0.999327 760.043 27)">Unprocessed</text><text font-family="Arial,Arial_MSFontService,sans-serif" font-weight="400" font-size="18.6632" transform="matrix(1 0 0 0.999327 744.035 50)">structural images</text><path d="M47.5 198.701C47.5 154.363 83.4672 118.42 127.835 118.42L894.165 118.42C938.533 118.42 974.5 154.363 974.5 198.701L974.5 519.815C974.5 564.153 938.533 600.096 894.165 600.096L127.835 600.096C83.4672 600.096 47.5 564.153 47.5 519.815Z" stroke="#000000" stroke-width="1.33399" stroke-miterlimit="8" fill="#F2F2F2" fill-rule="evenodd"/><text font-family="Arial,Arial_MSFontService,sans-serif" font-style="italic" font-weight="700" font-size="23.9956" transform="matrix(1 0 0 0.999327 125.625 105)">TMFC_denoise</text><rect x="714.5" y="181.378" width="201" height="54.9629" stroke="#000000" stroke-width="1.00049" stroke-linejoin="round" stroke-miterlimit="10" fill="#FFFFFF"/><text font-family="Arial,Arial_MSFontService,sans-serif" font-weight="400" font-size="18.6632" transform="matrix(1 0 0 0.999327 724.567 203)">Creates binary masks</text><text font-family="Arial,Arial_MSFontService,sans-serif" font-weight="400" font-size="18.6632" transform="matrix(1 0 0 0.999327 728.602 226)">(GM, WM, CSF, WB)</text><rect x="428.5" y="181.378" width="260" height="54.9629" stroke="#000000" stroke-width="1.00049" stroke-linejoin="round" stroke-miterlimit="10" fill="#FFFFFF"/><text font-family="Arial,Arial_MSFontService,sans-serif" font-weight="400" font-size="18.6632" transform="matrix(1 0 0 0.999327 475.104 203)">Finds (un)smoothed</text><text font-family="Arial,Arial_MSFontService,sans-serif" font-weight="400" font-size="18.6632" transform="matrix(1 0 0 0.999327 485.362 226)">functional images</text><rect x="110.5" y="181.378" width="291" height="54.9629" stroke="#000000" stroke-width="1.00049" stroke-linejoin="round" stroke-miterlimit="10" fill="#FFFFFF"/><text font-family="Arial,Arial_MSFontService,sans-serif" font-weight="400" font-size="18.6632" transform="matrix(1 0 0 0.999327 165.237 203)">Finds six head motion</text><text font-family="Arial,Arial_MSFontService,sans-serif" font-weight="400" font-size="18.6632" transform="matrix(1 0 0 0.999327 174.075 226)">parameters (6HMP)</text><path d="M492.459 59.46 492.459 149.634 256.5 149.634 258.001 148.135 258.001 173.322 254.999 173.322 254.999 146.635 490.958 146.635 489.457 148.135 489.457 59.46ZM261.002 171.822 256.5 180.821 251.998 171.822Z"/><path d="M560.001 59.4599 560.001 173.322 556.999 173.322 556.999 59.4599ZM563.002 171.822 558.5 180.821 553.998 171.822Z"/><rect x="110.5" y="269.318" width="291" height="100.932" stroke="#000000" stroke-width="1.00049" stroke-linejoin="round" stroke-miterlimit="10" fill="#FFFFFF"/><text font-family="Arial,Arial_MSFontService,sans-serif" font-weight="700" font-size="18.6632" transform="matrix(1 0 0 0.999327 121.785 292)">Calculates motion regressors:</text><text font-family="Arial,Arial_MSFontService,sans-serif" font-weight="400" font-size="18.6632" transform="matrix(1 0 0 0.999327 156.089 315)">•</text><text font-family="Arial,Arial_MSFontService,sans-serif" font-weight="400" font-size="18.6632" transform="matrix(1 0 0 0.999327 186.104 315)">12HMP, 24HMP</text><text font-family="Arial,Arial_MSFontService,sans-serif" font-weight="400" font-size="18.6632" transform="matrix(1 0 0 0.999327 156.089 337)">•</text><text font-family="Arial,Arial_MSFontService,sans-serif" font-weight="400" font-size="18.6632" transform="matrix(1 0 0 0.999327 186.104 337)">Spike Regressors</text><text font-family="Arial,Arial_MSFontService,sans-serif" font-weight="400" font-size="18.6632" transform="matrix(1 0 0 0.999327 156.089 359)">•</text><text font-family="Arial,Arial_MSFontService,sans-serif" font-weight="400" font-size="18.6632" transform="matrix(1 0 0 0.999327 186.104 359)">FD time series</text><rect x="428.5" y="269.318" width="487" height="100.932" stroke="#000000" stroke-width="1.00049" stroke-linejoin="round" stroke-miterlimit="10" fill="#FFFFFF"/><text font-family="Arial,Arial_MSFontService,sans-serif" font-weight="700" font-size="18.6632" transform="matrix(1 0 0 0.999327 468.729 292)">Calculates tissue</text><text font-family="Arial,Arial_MSFontService,sans-serif" font-weight="700" font-size="18.6632" transform="matrix(1 0 0 0.999327 620.637 292)">-</text><text font-family="Arial,Arial_MSFontService,sans-serif" font-weight="700" font-size="18.6632" transform="matrix(1 0 0 0.999327 626.807 292)">based nuisance regressors:</text><text font-family="Arial,Arial_MSFontService,sans-serif" font-weight="400" font-size="18.6632" transform="matrix(1 0 0 0.999327 473.685 315)">•</text><text font-family="Arial,Arial_MSFontService,sans-serif" font-weight="400" font-size="18.6632" transform="matrix(1 0 0 0.999327 503.7 315)">aCompCor</text><text font-family="Arial,Arial_MSFontService,sans-serif" font-weight="400" font-size="18.6632" transform="matrix(1 0 0 0.999327 598.913 315)">(fixed number or 50% variance)</text><text font-family="Arial,Arial_MSFontService,sans-serif" font-weight="400" font-size="18.6632" transform="matrix(1 0 0 0.999327 473.685 337)">•</text><text font-family="Arial,Arial_MSFontService,sans-serif" font-weight="400" font-size="18.6632" transform="matrix(1 0 0 0.999327 503.7 337)">WM/CSF signals: 2Phys, 4Phys, 8Phys</text><text font-family="Arial,Arial_MSFontService,sans-serif" font-weight="400" font-size="18.6632" transform="matrix(1 0 0 0.999327 473.685 359)">•</text><text font-family="Arial,Arial_MSFontService,sans-serif" font-weight="400" font-size="18.6632" transform="matrix(1 0 0 0.999327 503.7 359)">Whole</text><text font-family="Arial,Arial_MSFontService,sans-serif" font-weight="400" font-size="18.6632" transform="matrix(1 0 0 0.999327 556.559 359)">-</text><text font-family="Arial,Arial_MSFontService,sans-serif" font-weight="400" font-size="18.6632" transform="matrix(1 0 0 0.999327 562.729 359)">brain signals: GSR, 2GSR, 4GSR</text><path d="M825.001 58.9603 825.001 170.323 820.999 170.323 820.999 58.9603ZM829.003 168.323 823 180.321 816.997 168.323Z"/><path d="M560.001 236.84 560.001 259.187 555.999 259.187 555.999 236.84ZM564.003 257.187 558 269.185 551.997 257.188Z"/><path d="M825.001 236.84 825.001 259.187 820.999 259.187 820.999 236.84ZM829.003 257.187 823 269.185 816.997 257.188Z"/><rect x="110.5" y="403.228" width="805" height="32.9778" stroke="#000000" stroke-width="1.00049" stroke-linejoin="round" stroke-miterlimit="10" fill="#FFFFFF"/><text font-family="Arial,Arial_MSFontService,sans-serif" font-weight="400" font-size="18.6632" transform="matrix(1 0 0 0.999327 326.156 426)">Estimates updated GLM (with</text><text font-family="Arial,Arial_MSFontService,sans-serif" font-weight="700" font-size="18.6632" transform="matrix(1 0 0 0.999327 575.612 426)">WLS</text><text font-family="Arial,Arial_MSFontService,sans-serif" font-weight="400" font-size="18.6632" transform="matrix(1 0 0 0.999327 622.301 426)">or</text><text font-family="Arial,Arial_MSFontService,sans-serif" font-weight="700" font-size="18.6632" transform="matrix(1 0 0 0.999327 643.979 426)">rWLS</text><text font-family="Arial,Arial_MSFontService,sans-serif" font-weight="400" font-size="18.6632" transform="matrix(1 0 0 0.999327 692.836 426)">)</text><path d="M258.001 369.751 258.001 392.098 253.999 392.098 253.999 369.751ZM262.003 390.098 256 402.096 249.997 390.098Z"/><path d="M673.001 369.751 673.001 392.098 668.999 392.098 668.999 369.751ZM677.003 390.098 671 402.096 664.997 390.098Z"/><rect x="360.5" y="469.184" width="555" height="99.9327" stroke="#000000" stroke-width="1.00049" stroke-linejoin="round" stroke-miterlimit="10" fill="#FFFFFF"/><text font-family="Arial,Arial_MSFontService,sans-serif" font-weight="700" font-size="18.6632" transform="matrix(1 0 0 0.999327 525.428 491)">Calculates</text><text font-family="Arial,Arial_MSFontService,sans-serif" font-weight="700" font-size="18.6632" transform="matrix(1 0 0 0.999327 623.643 491)">QC measures</text><text font-family="Arial,Arial_MSFontService,sans-serif" font-weight="400" font-size="18.6632" transform="matrix(1 0 0 0.999327 743.868 491)">:</text><text font-family="Arial,Arial_MSFontService,sans-serif" font-weight="400" font-size="18.6632" transform="matrix(1 0 0 0.999327 434.463 514)">•</text><text font-family="Arial,Arial_MSFontService,sans-serif" font-weight="400" font-size="18.6632" transform="matrix(1 0 0 0.999327 464.478 514)">Mean/Max FD, Number of flagged time points</text><text font-family="Arial,Arial_MSFontService,sans-serif" font-weight="400" font-size="18.6632" transform="matrix(1 0 0 0.999327 469.674 536)">•</text><text font-family="Arial,Arial_MSFontService,sans-serif" font-weight="400" font-size="18.6632" transform="matrix(1 0 0 0.999327 499.689 536)">DVARS before/after noise regression</text><text font-family="Arial,Arial_MSFontService,sans-serif" font-weight="400" font-size="18.6632" transform="matrix(1 0 0 0.999327 524.454 558)">•</text><text font-family="Arial,Arial_MSFontService,sans-serif" font-weight="400" font-size="18.6632" transform="matrix(1 0 0 0.999327 554.469 558)">FD</text><text font-family="Arial,Arial_MSFontService,sans-serif" font-weight="400" font-size="18.6632" transform="matrix(1 0 0 0.999327 579.314 558)">-</text><text font-family="Arial,Arial_MSFontService,sans-serif" font-weight="400" font-size="18.6632" transform="matrix(1 0 0 0.999327 585.484 558)">DVARS correlations</text><path d="M258.001 236.84 258.001 259.187 253.999 259.187 253.999 236.84ZM262.003 257.187 256 269.185 249.997 257.188Z"/><path d="M673.001 435.706 673.001 458.206 668.999 458.206 668.999 435.706ZM677.003 456.207 671 468.204 664.997 456.207Z"/><rect x="47.5" y="646.065" width="248" height="54.9629" stroke="#000000" stroke-width="1.00049" stroke-linejoin="round" stroke-miterlimit="10" fill="none"/><text font-family="Arial,Arial_MSFontService,sans-serif" font-weight="400" font-size="18.6632" transform="matrix(1 0 0 0.999327 83.6205 668)">Updated 1</text><text font-family="Arial,Arial_MSFontService,sans-serif" font-weight="400" font-size="12.4422" transform="matrix(1 0 0 0.999327 169.496 662)">st</text><text font-family="Arial,Arial_MSFontService,sans-serif" font-weight="400" font-size="18.6632" transform="matrix(1 0 0 0.999327 179.167 668)">-</text><text font-family="Arial,Arial_MSFontService,sans-serif" font-weight="400" font-size="18.6632" transform="matrix(1 0 0 0.999327 185.337 668)">lvl GLMs</text><text font-family="Arial,Arial_MSFontService,sans-serif" font-weight="400" font-size="18.6632" transform="matrix(1 0 0 0.999327 107.052 691)">(</text><text font-family="Arial,Arial_MSFontService,sans-serif" font-weight="400" font-size="18.6632" transform="matrix(1 0 0 0.999327 113.222 691)">SPM.mat</text><text font-family="Arial,Arial_MSFontService,sans-serif" font-weight="400" font-size="18.6632" transform="matrix(1 0 0 0.999327 195.095 691)">files)</text><rect x="47.5" y="740.001" width="248" height="54.963" stroke="#000000" stroke-width="1.00049" stroke-linejoin="round" stroke-miterlimit="10" fill="#DEEBF7"/><text font-family="Arial,Arial_MSFontService,sans-serif" font-weight="700" font-size="18.6632" transform="matrix(1 0 0 0.999327 62.4702 762)">Task activation analyses</text><text font-family="Arial,Arial_MSFontService,sans-serif" font-weight="400" font-size="18.6632" transform="matrix(1 0 0 0.999327 113.055 785)">(2</text><text font-family="Arial,Arial_MSFontService,sans-serif" font-weight="400" font-size="12.4422" transform="matrix(1 0 0 0.999327 129.563 779)">nd</text><text font-family="Arial,Arial_MSFontService,sans-serif" font-weight="400" font-size="18.6632" transform="matrix(1 0 0 0.999327 143.57 785)">-</text><text font-family="Arial,Arial_MSFontService,sans-serif" font-weight="400" font-size="18.6632" transform="matrix(1 0 0 0.999327 149.74 785)">lvl GLMs)</text><path d="M173.001 435.706 173.001 636.317 168.999 636.317 168.999 435.706ZM177.003 634.317 171 646.315 164.997 634.317Z"/><path d="M173.001 700.528 173.001 729.509 168.999 729.509 168.999 700.528ZM177.003 727.509 171 739.507 164.997 727.509Z"/><rect x="386.5" y="740.001" width="249" height="54.963" stroke="#000000" stroke-width="1.00049" stroke-linejoin="round" stroke-miterlimit="10" fill="none"/><text font-family="Arial,Arial_MSFontService,sans-serif" font-weight="400" font-size="18.6632" transform="matrix(1 0 0 0.999327 409.117 762)">Least</text><text font-family="Arial,Arial_MSFontService,sans-serif" font-weight="400" font-size="18.6632" transform="matrix(1 0 0 0.999327 454.639 762)">-</text><text font-family="Arial,Arial_MSFontService,sans-serif" font-weight="400" font-size="18.6632" transform="matrix(1 0 0 0.999327 460.809 762)">Squares</text><text font-family="Arial,Arial_MSFontService,sans-serif" font-weight="400" font-size="18.6632" transform="matrix(1 0 0 0.999327 530.176 762)">-</text><text font-family="Arial,Arial_MSFontService,sans-serif" font-weight="400" font-size="18.6632" transform="matrix(1 0 0 0.999327 536.346 762)">Separate</text><text font-family="Arial,Arial_MSFontService,sans-serif" font-weight="400" font-size="18.6632" transform="matrix(1 0 0 0.999327 459.221 785)">(LSS) GLMs</text><rect x="47.5" y="833.938" width="248" height="54.9629" stroke="#000000" stroke-width="1.00049" stroke-linejoin="round" stroke-miterlimit="10" fill="#DEEBF7"/><text font-family="Arial,Arial_MSFontService,sans-serif" font-weight="700" font-size="18.6632" transform="matrix(1 0 0 0.999327 77.2004 856)">Multivariate analyses</text><text font-family="Arial,Arial_MSFontService,sans-serif" font-weight="400" font-size="18.6632" transform="matrix(1 0 0 0.999327 114.325 879)">(MVPA, RSA)</text><rect x="386.5" y="646.065" width="249" height="54.9629" stroke="#000000" stroke-width="1.00049" stroke-miterlimit="8" fill="none"/><text font-family="Arial,Arial_MSFontService,sans-serif" font-weight="400" font-size="18.6632" transform="matrix(1 0 0 0.999327 452.055 680)">TMFC toolbox</text><path d="M2.28966e-06-1.99963 81.6733-1.99954 81.6733 1.99973-2.28966e-06 1.99963ZM79.6737-5.99881 91.6714 0.000104968 79.6736 5.99899Z" transform="matrix(1.00067 0 0 -1 295 673.546)"/><rect x="726.5" y="740.001" width="248" height="54.963" stroke="#000000" stroke-width="1.00049" stroke-miterlimit="8" fill="#F8CBAD"/><text font-family="Arial,Arial_MSFontService,sans-serif" font-weight="700" font-size="18.6632" transform="matrix(1 0 0 0.999327 787.639 774)">gPPI</text><text font-family="Arial,Arial_MSFontService,sans-serif" font-weight="700" font-size="18.6632" transform="matrix(1 0 0 0.999327 834.328 774)">analyses</text><path d="M635 659.555 716.728 659.555 716.728 663.554 635 663.554ZM714.727 655.555 726.733 661.554 714.727 667.553Z"/><rect x="726.5" y="646.065" width="248" height="54.9629" stroke="#000000" stroke-width="1.00049" stroke-miterlimit="8" fill="#E2F0D9"/><text font-family="Arial,Arial_MSFontService,sans-serif" font-weight="400" font-size="18.6632" transform="matrix(1 0 0 0.999327 758.124 669)">Background functional</text><text font-family="Arial,Arial_MSFontService,sans-serif" font-weight="400" font-size="18.6632" transform="matrix(1 0 0 0.999327 766.882 692)">connectivity (BGFC)</text><path d="M635 681.54 682.868 681.54 682.868 767.659 680.867 765.659 716.728 765.659 716.728 769.659 678.866 769.659 678.866 683.539 680.867 685.539 635 685.539ZM714.727 761.66 726.733 767.659 714.727 773.658Z"/><path d="M1.99963-1.61546e-05 1.99987 28.9809-1.9994 28.9809-1.99963 1.61546e-05ZM5.99912 26.9812 0.000314903 38.9791-5.99868 26.9813Z" transform="matrix(-1.00067 0 0 1 510 700.528)"/><rect x="726.5" y="833.938" width="248" height="54.9629" stroke="#000000" stroke-width="1.00049" stroke-miterlimit="8" fill="#F8CBAD"/><text font-family="Arial,Arial_MSFontService,sans-serif" font-weight="700" font-size="18.6632" transform="matrix(1 0 0 0.999327 767.379 867)">BSC</text><text font-family="Arial,Arial_MSFontService,sans-serif" font-weight="700" font-size="18.6632" transform="matrix(1 0 0 0.999327 806.898 867)">-</text><text font-family="Arial,Arial_MSFontService,sans-serif" font-weight="700" font-size="18.6632" transform="matrix(1 0 0 0.999327 813.068 867)">LSS analyses</text><rect x="386.5" y="833.938" width="249" height="54.9629" stroke="#000000" stroke-width="1.00049" stroke-miterlimit="8" fill="none"/><text font-family="Arial,Arial_MSFontService,sans-serif" font-weight="400" font-size="18.6632" transform="matrix(1 0 0 0.999327 403.364 867)">Single</text><text font-family="Arial,Arial_MSFontService,sans-serif" font-weight="400" font-size="18.6632" transform="matrix(1 0 0 0.999327 455.222 867)">-</text><text font-family="Arial,Arial_MSFontService,sans-serif" font-weight="400" font-size="18.6632" transform="matrix(1 0 0 0.999327 461.392 867)">trial beta estimates</text><path d="M635 859.42 716.728 859.42 716.728 863.419 635 863.419ZM714.727 855.421 726.733 861.42 714.727 867.419Z"/><path d="M1.99963-5.38488e-06 1.99971 28.9807-1.99955 28.9807-1.99963 5.38488e-06ZM5.99897 26.9811 0.000104968 38.9789-5.99883 26.9811Z" transform="matrix(-1.00067 0 0 1 510 794.465)"/><path d="M386.733 863.419 305.005 863.419 305.005 859.42 386.733 859.42ZM307.006 867.418 295 861.42 307.006 855.421Z"/><text fill="#A6A6A6" font-family="Calibri,Calibri_MSFontService,sans-serif" font-style="italic" font-weight="700" font-size="23.9956" transform="matrix(1 0 0 0.999327 658.737 104)">Inputs</text><text fill="#A6A6A6" font-family="Calibri,Calibri_MSFontService,sans-serif" font-style="italic" font-weight="700" font-size="23.9956" transform="matrix(1 0 0 0.999327 183.97 628)">Output</text></g></svg>